<?xml version="1.0" encoding="utf-8"?>
<!-- Generator: Adobe Illustrator 15.1.0, SVG Export Plug-In . SVG Version: 6.00 Build 0)  -->
<!DOCTYPE svg PUBLIC "-//W3C//DTD SVG 1.1//EN" "http://www.w3.org/Graphics/SVG/1.1/DTD/svg11.dtd">
<svg version="1.1" id="Layer_1" xmlns="http://www.w3.org/2000/svg" xmlns:xlink="http://www.w3.org/1999/xlink" x="0px" y="0px"
	 width="500px" height="500px" viewBox="0 0 500 500" enable-background="new 0 0 500 500" xml:space="preserve">
<path fill="#58595B" d="M387.82,213.015l-17.967-25.567l-16.602-10.843l-0.362-0.236l-41.505-3.087l-0.049-0.004l-31.105,10.597
	l-32.733,9.208l-18.859,7.743l-4.98-2.053l1.243-6.846l4.426-10.553l1.657-14.829h4.978l9.089-4.544l7.684-8.358l3.481-8.662
	l3.506-8.418l-1.925-6.162l-9.132-0.731l-10.79,3.132l-5.907,5.183l-7.113,4.02l-0.789-1.576l14.552-13.895l17.727-12.272
	l15.744-16.764l0.072-0.078l15.037-30.073l4.482-17.864l0.021-15.92l-6.823,2.985l-2.768,19.723l-2.557,6.046l-1.14-15.092
	l-1.368-24.289l-4.412-8.869l-5.619,9.737l-5.61,1.673l-4.397,3.181l4.569,8.433l-0.007,0.015l0.127,0.214l3.364,13.449
	l1.689,21.619l-6.379,19.135l-10.223,11.052l4.575-13.59l0.013-18.732l-4.629,3.897l-1.724,13.098l-7.736,14.802l-19,21.714
	l-8.014,8.312l-0.003-0.121l-0.989,1.13h-23.278l-5.892-4.581l-8.25-8.251l-0.036-16.576l-3.606,7.661l-4.954-6.119l-3.716-21.621
	l-0.013-0.077l-4.485-8.386l-4.442,9.491l2.066,16.234l-10.093-13.555l0.009-0.038l-0.104-0.116l-2.676-18.734l6.393-27.924
	l0.251-0.26l-0.008-0.012l11.239-11.579l-3.73-6.632l-8.551,6.414l-6.691-1.826l-1.332-10.978l-6.866-8.015l-5.113,7.083
	l0.685,10.958l-6.803,12.924v24.046l-0.294,0.263l0.401,0.45l4.724,10.801l13.191,29.763l-0.072,0.315l0.402,0.203l17.993,17.653
	l13.127,12.117l1.595,6.703l-1.173,2.582l-3.994-3.99l-5.89-7.623l-11.761-4.844l-8.562-1.444l-5.527,2.763l4.285,13.563
	l6.194,12.749l8.106,7.772l11.528,2.035l7.176,9.135l0.34,18.521l2.384,19.081l0.68,28.597l1.018,37.993l0.009,0.301l5.866,13.802
	l16.67,23.147l9.525,37.465l-0.398-0.408l1.049,2.991l3.057,33.282l2.367,35.499l-0.08,0.104l0.071,0.188l-6.417,34.455
	l-9.634,19.622l7.096,0.394l7.845,3.211l5.575-6.083h4.811l0.321-11.366l5.384,4.308l-1.936-14.292l1.021-19.062l0.336-27.698
	l0.092-0.119l-0.067-0.193l4.584-27.503l0.166-1.022l-0.342-18.428v-27.062l17.814-5.359v5.877l1.102,27.98l-0.233,0.156
	l0.256,0.428l0.069,1.705l-1.2,35.62l4.627,8.907l1.343,11.733l-0.342,30.981v27.716l4.38,2.021l-0.71,6.754h6.011l6.456-1.9
	l-0.728-7.993l2.74-17.462l-5.91-17.727l0.008-0.003l-0.259-0.754l-2.375-30.179l0.678-27.099l0.087-0.211l-0.043-0.07l5.059-24.618
	l1.925-10.99l0.468-0.317l-0.353-0.351l0.347-1.976l3.656-21.941l10.282-0.966l18.334,0.999l4.594,7.214l8.858,10.18l0.336,0.38
	l7.758,12.483l4.026,14.76l-3.427,31.777l-0.097,0.144l0.062,0.188l-0.268,2.479l-4.067,27.799l-9.435,16.174l-6.452,8.151
	l-2.519,6.616h6.908l16.461-5.593l4.39-9.876l0.224,3.561l4.402-1.957l1.282-17.641l0.287-0.029l-0.233-0.712l0.053-0.734
	l5.451-29.641l3.731-25.813l0.374-1.165l0.53-0.791l-0.258-0.058l4.464-13.917l8.468,25.403l0.002,29.809l-0.25,2.152l-0.124,0.425
	l0.064,0.051l-3.075,26.148l-0.063,0.129l0.002,0.009l-9.095,17.487l6.55,2.863l6.058-4.782l1.185,2.967h7.919l1.438-9.704
	l4.152-8.65l-4.761-19.721l0.174-0.288l-0.217-0.172l0.335-17.015l0.61-22.92l0.117-0.398l-0.1-0.208l0.392-14.699l-1.712-25.595
	l-3.352-13.111l0.087-0.172l-0.129-0.162l0.334-31.708l4.397-31.46l0.145-0.183l-0.067-0.159l7.429-25.672L387.82,213.015z
	 M367.107,459.473l-0.956-2.393l7.732-4.695l-1.065,7.088H367.107z M358.679,461.064l-4.354-1.906l7.585-14.584l2.555,11.923
	L358.679,461.064z M349.844,373.168l-17.001,25.331l3.062-28.401L349.844,373.168z M335.715,368.101l-3.853-14.123l-6.688-10.779
	l29.691,12.857L335.715,368.101z M341.081,427.347l-8.474-25.923l16.972-25.287l-3.423,23.621L341.081,427.347z M339.363,447.785
	l-1.73,0.77l-0.458-7.344l0,0l0,0l-0.693,1.558l-7.707-10.275l11.792-1.237L339.363,447.785z M332.155,404.658l8.229,25.176
	l-12.098,1.268L332.155,404.658z M330.661,455.863l-15.604,5.313h-4.637l1.642-4.379l3.211-4.057l3.211-4.058l9.034-15.476
	l8.296,11.062L330.661,455.863z M150.424,128.367l10.704,4.409l-13.142,20.023l-5.55-11.407l-3.893-12.328l4.014-2.007
	L150.424,128.367z M139.373,16.224l1.081,8.916l-10.022-10.308l3.543-4.908L139.373,16.224z M249.873,86.942l1.586-12.052
	l1.845-1.552v14.55L249.873,86.942z M262.268,35.38l-3.398-6.3l3.139-2.283l4.248-1.25L262.268,35.38z M267.99,25.086l7.674-1.18
	l1.32,23.414l1.131,14.986l-14.949-25.321L267.99,25.086z M270.2,21.158l2.344-4.062l2.711,5.42l-6.407,0.985L270.2,21.158z
	 M279.728,65.633l9.692-13.018l-3.54,14.16l-12.193,24.385L279.728,65.633z M261.674,92.19l15.794-23.243l-5.301,22.408
	l-1.254,5.301l-13.709,14.603L261.674,92.19z M268.19,72.612l0.015-0.045l-1.721-21.989l-2.226-8.919l13.954,23.638l-14.888,21.909
	L268.19,72.612z M256.718,131.754l1.48,4.739l-3.311,7.945l-3.357,8.396l-5.87,6.402l3.702-28.07L256.718,131.754z M247.885,131.392
	l-3.764,28.547l-18.356-16.8l6.975-3.943l5.794-5.089L247.885,131.392z M381.937,238.562l-6.931,23.943l-19.809-46.126l31.002-2.407
	L381.937,238.562z M279.031,323.489l-3.741,22.444l-0.172,0.984l-20.139-19.998l25.648-32.814l-1.599,15.653L279.031,323.489z
	 M274.59,349.931l-1.682,9.61l-4.737,23.06 M260.361,466.146v-14.805l0.069-6.393l14.653,15.31L260.361,466.146z M275.433,461.664
	l-2.344,14.94l-12.008-9.202L275.433,461.664z M264.132,479.871l-3.771-1.74v-9.473l11.684,8.951L264.132,479.871z M268.397,486.39
	h-4.209l0.547-5.199l8.24-2.354l0.55,6.044L268.397,486.39z M269.232,441.508l-8.772,0.882l0.242-22.053v-0.043l-0.62-5.426
	L269.232,441.508z M267.103,411.793v0.038l1.943,24.719l-9.656-28.121l8.304-20.051L267.103,411.793z M255.905,364.857
	l11.795,19.756l-9.152,22.095l-3.804-7.324L255.905,364.857z M274.461,348.287l-18.657,12.572l-1.065-27.065v-5.09L274.461,348.287z
	 M179.902,275.829l-0.967-36.084l-0.684-28.643l-0.2-1.597l43.569,10.292L179.902,275.829z M173.694,120.927l-1.463,11.404
	l-12.25-11.306l-14.759-14.48L173.694,120.927z M142.247,103.434l3.275-14.291l12.628,16.96l-2.703-21.244l3.054-6.524l3.016,5.622
	l3.749,21.812l0.011,0.062l6.629,8.189l0,0l0,0l1.847-3.923v9.252L142.247,103.434z M305.482,212.569l46.505-34.122l1.406,36.536
	L305.482,212.569z M369.673,326.333l-21.563-26.75l25.962-32.47l-4.075,29.132L369.673,326.333z M352.025,325.971l1.941,19.391
	l1.656,9.459l-30.673-13.283L352.025,325.971z M310.526,324.026l13.185-3.268l26.816,4.419l-27.024,15.536l-8.762-10.063
	L310.526,324.026z M295.28,322.083l-7.421-26.412l48.636,6.485l-4.778,5.064l-12.185,9.549l-10.324,6.072L295.28,322.083z
	 M332.656,308.303l4.341-4.589l-1.049,8.443l-12.536,7.198l-9.413,2.332l6.313-3.716L332.656,308.303z M353.495,217.608
	l2.174,56.437l-14.924,12.253l-52.094,7.535L353.495,217.608z M337.284,313.044l1.153-9.289l6.438,10.532l6.256,9.535l-25.37-4.18
	L337.284,313.044z M346.503,299.297l-0.233,0.29l0.314,0.389l7.768,15.455l3.9,10.414l-3.856-1.236l0.335-0.193l-1.674-0.276
	l-6.97-10.62l-7.348-12.021l2.956-14.124l11.584-9.509l-5.09,7.839L346.503,299.297z M353.877,309.026l15.642,19.401l-9.357,18.266
	v-19.8l-4.484-12.014l-4.83-9.616L353.877,309.026z M349.573,286.204l6.365-10.808l0,0l1.146-1.942l-2.076-53.881l19.301,44.945
	l-26.094,32.637L349.573,286.204z M242.775,308.48l13.293,5.835l-2.257,10.276l-3.493-8.448l-11.497-7.663H242.775z
	 M281.048,289.998l-0.146,1.427l-25.505,32.627l2.324-10.578l-14.6-6.408l-4.648-0.021l42.572-34.57L281.048,289.998z
	 M225.298,330.749l-16.768,4.854l4.451-11.05L225.298,330.749z M235.5,307.38l0.052,0.118l-21.957,14.555l8.021-46.265L235.5,307.38
	z M241.857,233.271l-1.502,25.309l-15.456,11.562l10.615-12.745l0,0l0,0l-2.198-24.767l-9.578-13.275l0.338-0.454l0,0l0,0
	l-0.51-0.12v-14.609l2.74,9.263l9.578,5.645L241.857,233.271z M258.493,288.94l-21.763,17.672l-14.396-32.759l18.859-14.108
	l39.06,11.524L258.493,288.94z M241.898,256.808l1.402-23.618l0.01-0.167l-6.29-14.938l-9.499-5.599l-3.56-12.036l4.678,1.927
	l0.118-0.049l55.206,3.704L241.898,256.808z M234.754,332.028l-6.87-1.683l-0.054-0.33l-0.394,0.113l-0.112,0.032l-13.293-6.677
	l22.106-14.653l0.036,0.081l0.32-0.259l12.666,8.442l3.896,9.425L234.754,332.028z M242.644,258.677l59.271-43.488l-20.588,54.901
	L242.644,258.677z M245.307,254.94l40.312-48.659l16.378,7.066L245.307,254.94z M283.312,268.884l20.608-54.956l48.229,2.43
	L283.312,268.884z M282.479,290.095l0.004-16.684l1.652,2.57l1.952,18.223l-0.125,0.018l0.171,0.609l-3.519,14.796l-2.153,8.312
	l-0.001-8.084L282.479,290.095z M282.727,271.135l66.542-50.774l-61.858,72.72l-1.866-17.419l-0.017-0.17L282.727,271.135z
	 M350.661,177.643l-47.322,34.72l-16.765-7.233l25.17-30.382L350.661,177.643z M223.548,191.443l-1.194,6.484l-15.168-11.714
	l15.113-16.53l5.553,11.497L223.548,191.443z M179.666,163.853l1.823,3.849h-5.286l-1.792-2.835l-0.929-2.203h5.586l0.539,1.366
	L179.666,163.853z M196.979,195.37l-4.441-7.724v-7.296c3.091-2.42,6.006-4.39,6.948-4.702l5.279,3.728l0.621,6.68l-0.312,0.34
	l0.155,0.119l-4.28,8.737l8.254,0.918L207.957,197h-18.819l-1.087-1.631H196.979z M213.241,168.173l-7.928,9.832l-5.428-3.831
	h-0.228c-0.162,0-0.367,0.045-0.606,0.13c-1.671,0.591-5.005,3.059-7.111,4.693l-8.384-10.556l28.747-32.792L213.241,168.173z
	 M175.566,173.209l0.828-4.074h5.881l8.829,11.117v7.776l3.395,5.905h-7.367L175.566,173.209z M175.579,176.178l9.909,17.756h-0.119
	l3.002,4.501h20.021l4.886-3.256l-10.142-1.128l3.252-6.641l14.782,11.418l-43.342,8.884l-1.958-15.686L175.579,176.178z
	 M223.671,164.619l-1.621,3.083h-6.604l3.856-4.886L223.671,164.619z M220.855,169.135l-14.16,15.488l-0.505-5.42l8.119-10.068
	H220.855z M229.6,166.012l-1.399,12.591l-4.913-10.171l1.331-2.53L229.6,166.012z M222.392,140.622l-3.988,21.016l-3.777,4.786
	l-0.903-31.292L222.392,140.622z M189.631,134.52h21.752l-28.582,32.604l-2.473-5.223L189.631,134.52z M174.07,143.57l1.154-2.539
	l-1.73-7.267l1.5-11.708l7.507,7.504l5.774,4.495l-8.769,25.806l-5.962-15.137L174.07,143.57z M172.004,162.851l1.117,2.643
	l1.927,3.062l-0.632,3.107l-5.924-7.539L172.004,162.851z M171.446,161.528l-4.195,1.52l-11.181-1.974l-6.861-6.563l23.15-8.882
	l6.144,15.598h-7.182L171.446,161.528z M180.547,208.62l41.583-8.525v18.347L180.547,208.62z M220.259,275.221l-8.152,47.02
	l-9.855-8.021l-16.591-23.026l-5.372-12.64L220.259,275.221z M226.676,331.844l7.358,44.781l-21.448-22.079l-4.409-17.349
	L226.676,331.844z M234.213,368.855l-6.077-36.981l5.92,1.459v27.048L234.213,368.855z M290.635,321.829L290.635,321.829
	L290.635,321.829l-9.94,0.931l3.312-12.788l2.925-12.298l6.835,24.327l-3.075-0.167L290.635,321.829z M358.647,349.66
	L358.647,349.66v0.002l-1.817,3.747l-1.442-8.242l-1.936-19.354l5.272,1.689v21.991L358.647,349.66L358.647,349.66z M359.44,351.314
	l14.921,30.831l-0.002,0.064l-8.045,27.629l0.003-26.422l-9.118-27.349l-0.025-0.081L359.44,351.314z M374.445,379.022
	l-14.201-29.346l9.899-19.324l2.919,11.366l1.7,25.442L374.445,379.022z M368.839,188.5l16.913,24.066l-30.922,2.401l-1.407-36.537
	L368.839,188.5z M241.477,162.185l-5.852,2.927h-5.09l-7.751-2.528L241.477,162.185z M214.094,133.667l8.611-8.932l15.646-17.878
	 M223.497,142.499l0.75,1.499l0.204-0.115l18.396,16.837l-22.9,0.488L223.497,142.499z M241.946,102.638l7.501-14.324l3.652,1.007
	l-5.357,15.914l-10.157,20.314l-12.067,11.511l16.375-34.293L241.946,102.638z M240.074,123.782l8.501-17.004l6.235,6.802
	L240.074,123.782z M249.375,105.527l10.311-11.148l-4.182,17.835L249.375,105.527z M140.449,48.638l1.595,18.279l-0.331,1.441
	l2.409,16.85l-19.746-22.212L140.449,48.638z M147.714,42.149l-4.627,20.212l-1.303-14.917L147.714,42.149z M140.737,27.492
	l0.03,0.238l0.181,0.05l7.055,12.187l-7.087,6.33l-16.567-7.874l6.56-12.464l-0.574-9.168L140.737,27.492z M156.868,24.142
	l2.403,4.271l-10.208,10.518l-6.146-10.615l6.149,1.678L156.868,24.142z M144.388,87.668l-3.184,13.891l-12.413-28.007l-2.954-6.753
	L144.388,87.668z M230.096,404.508l-16.396-46.755l20.646,21.253L230.096,404.508z M217.637,426.713l10.645,27.866l1.451,10.747
	l-4.834-3.869l-0.015,0.521l-13.134-3.665L217.637,426.713z M217.987,422.147l-2.26-33.908l-2.536-27.601l16.346,46.613
	L217.987,422.147z M229.286,435.281l-0.84,15.707l-10.234-26.789l11.395-14.692L229.286,435.281z M208.056,477.213l-5.208-0.302
	l7.788-15.867l3.751,18.76L208.056,477.213z M373.741,405.325l-0.312,15.93l-7.271-5.746l8.051-27.646L373.741,405.325z
	 M374.243,450.489l-8.493,5.155l-2.796-13.044l10.874-18.021l4.301,17.813L374.243,450.489z"/>
</svg>
